HIERARCHY
ROOT Hips
{
  OFFSET 38.572 100.649 128.976
  CHANNELS 6 Xposition Yposition Zposition Zrotation Xrotation Yrotation
  JOINT RightUpLeg
  {
    OFFSET -8.9458 -8.66707 0.101652
    CHANNELS 3 Zrotation Xrotation Yrotation
    JOINT RightLeg
    {
      OFFSET 0 -44.4227 1.3727
      CHANNELS 3 Zrotation Xrotation Yrotation
      JOINT RightFoot
      {
        OFFSET 0.253549 -42.0924 -1.46059
        CHANNELS 3 Zrotation Xrotation Yrotation
        JOINT RightToes
        {
          OFFSET 0.04 -4.41509 8.4991
          CHANNELS 3 Zrotation Xrotation Yrotation
          End Site
          {
            OFFSET -0.08 -0.137448 9.77979
          }
        }
      }
    }
  }
  JOINT Spine
  {
    OFFSET 0 11.8905 0
    CHANNELS 3 Zrotation Xrotation Yrotation
    JOINT Spine1
    {
      OFFSET 0 25.6574 0.127663
      CHANNELS 3 Zrotation Xrotation Yrotation
      JOINT HEad
      {
        OFFSET 0 8.73416 0.011341
        CHANNELS 3 Zrotation Xrotation Yrotation
        End Site
        {
          OFFSET -0.29 12.7742 2.51395
        }
      }
      JOINT LeftShoulder1
      {
        OFFSET 8.99 -0.362252 -0.22
        CHANNELS 3 Zrotation Xrotation Yrotation
        JOINT LeftArm
        {
          OFFSET 10.2827 -0.00338 0.322123
          CHANNELS 3 Zrotation Xrotation Yrotation
          JOINT LeftForeArm
          {
            OFFSET 32.7669 0.099144 -1.42434
            CHANNELS 3 Zrotation Xrotation Yrotation
            JOINT LeftHand
            {
              OFFSET 27.5643 0.085362 1.02216
              CHANNELS 3 Zrotation Xrotation Yrotation
              End Site
              {
                OFFSET 16.7443 -0.6 1.50291
              }
            }
          }
        }
      }
      JOINT RightShoulder
      {
        OFFSET -8.99 -0.362252 -0.22
        CHANNELS 3 Zrotation Xrotation Yrotation
        JOINT RightArm
        {
          OFFSET -10.2827 -0.00338 0.322123
          CHANNELS 3 Zrotation Xrotation Yrotation
          JOINT RightForeArm
          {
            OFFSET -32.8971 0.099144 -1.42434
            CHANNELS 3 Zrotation Xrotation Yrotation
            JOINT RightHand
            {
              OFFSET -27.4921 0.085362 1.02216
              CHANNELS 3 Zrotation Xrotation Yrotation
              End Site
              {
                OFFSET -16.6312 -0.6 1.50291
              }
            }
          }
        }
      }
    }
  }
  JOINT LeftUpLeg
  {
    OFFSET 8.9458 -8.66707 0.101652
    CHANNELS 3 Zrotation Xrotation Yrotation
    JOINT LeftLeg
    {
      OFFSET 0 -44.4227 1.3727
      CHANNELS 3 Zrotation Xrotation Yrotation
      JOINT LeftFoot
      {
        OFFSET -0.253549 -42.0924 -1.46059
        CHANNELS 3 Zrotation Xrotation Yrotation
        JOINT LeftToes
        {
          OFFSET -0.04 -4.41509 8.4991
          CHANNELS 3 Zrotation Xrotation Yrotation
          End Site
          {
            OFFSET 0.08 -0.047448 9.77979
          }
        }
      }
    }
  }
}
MOTION
Frames:	10
Frame Time:	0.0166667
33.2383 77.0354 127.682 3.08297 14.1626 -179.288 -2.932 -9.88792 -0.516508 128.979 82.1542 -126.657 2.0178 -27.3975 -0.669659 0.0462048 0.000533403 0.662642 2.32252 6.30905 8.63656 -3.4381 13.2836 29.0837 -7.01599 8.73164 10.8572 1.19271e-015 -1.59028e-015 3.18055e-015 -47.6586 -59.5428 17.1455 -33.5668 59.845 -91.3049 26.5313 10.9516 -34.26 20.3625 4.18232 18.5965 100.163 -4.84644 114.541 8.61152 5.05267 1.76211 96.2331 66.818 -92.1939 15.1196 -45.0182 -9.29449 42.9935 63.5986 -72.7874 -20.526 -19.0982 -2.69141 -1.31371e-009 1.56035e-007 -4.8354e-009 
33.7992 77.8191 128.129 2.90437 14.0482 -179.35 -2.76358 -9.96572 -0.448913 120.077 82.2824 -118.29 1.28764 -27.2298 -0.766056 0.0462048 0.000533403 0.662642 2.2195 6.40781 8.58482 -3.51207 13.4471 28.7549 -7.42601 8.77422 11.1645 3.97569e-016 1.59028e-015 3.18055e-015 -48.3311 -59.8275 16.0946 -33.0507 59.8403 -92.2183 26.7149 10.91 -34.1608 20.2465 4.17763 18.6033 100.539 -5.9009 113.519 10.0808 7.0041 3.71433 91.9499 66.2222 -88.8637 15.5801 -45.2473 -8.77151 39.4391 63.7497 -68.1438 -20.0412 -16.0409 -1.85245 -1.31371e-009 1.56035e-007 -4.8354e-009 
34.2618 78.8409 128.489 2.63458 13.7744 -179.54 -2.66905 -10.1856 -0.215919 109.725 82.3786 -108.442 0.649646 -26.7867 -0.827855 0.0462048 0.000533403 0.662642 2.03036 6.48722 8.55833 -3.67846 13.5442 28.4065 -7.96964 8.83864 11.5409 3.97569e-016 0 3.18055e-015 -48.2912 -60.2239 15.9003 -32.376 59.8747 -93.5484 26.5655 10.9945 -34.042 20.0264 4.15222 18.5855 100.976 -7.05832 111.904 11.843 9.27171 5.95627 87.1227 65.3486 -85.1 16.2491 -45.4722 -8.06513 34.8601 64.1803 -62.0759 -19.6648 -13.1954 -1.05877 -1.31371e-009 1.56035e-007 -4.8354e-009 
34.621 80.069 128.755 2.31241 13.3687 -179.772 -2.63103 -10.5192 0.0721901 98.2504 82.451 -97.2317 0.303684 -26.0196 -0.836599 0.0462048 0.000533403 0.662642 1.76854 6.5482 8.53697 -3.89313 13.5823 27.9987 -8.57488 8.87282 11.9465 -1.19271e-015 1.59028e-015 -0 -47.7413 -60.7158 16.3119 -31.7262 59.9534 -95.0255 26.1404 11.1709 -33.9508 19.7516 4.12062 18.572 101.356 -8.36316 109.773 13.8939 11.8956 8.36909 81.9869 64.2728 -81.2094 17.0635 -45.6697 -7.17976 29.5074 64.8053 -54.9858 -19.3814 -10.9084 -0.382289 -1.31371e-009 1.56035e-007 -4.8354e-009 
34.8819 81.461 128.933 1.98213 12.8595 -179.964 -2.64889 -10.9503 0.321862 85.8263 82.4405 -84.7279 0.411633 -24.8749 -0.778951 0.0462048 0.000533403 0.662642 1.45453 6.60091 8.51106 -4.10344 13.5879 27.5173 -9.13601 8.80801 12.2864 -1.59028e-015 7.95139e-016 -3.18055e-015 -47.2133 -61.1181 16.717 -31.083 59.992 -96.5708 25.6776 11.363 -33.8456 19.4515 4.08683 18.5605 101.577 -9.78268 107.203 16.1568 14.7991 10.9341 76.6695 63.0865 -77.3946 17.8061 -45.7848 -6.10881 24.2239 65.472 -48.0817 -19.1426 -9.51988 0.102306 -1.31371e-009 1.56035e-007 -4.8354e-009 
35.0571 82.9638 129.035 1.68937 12.2745 179.949 -2.71572 -11.4685 0.468601 73.0232 82.2562 -71.4681 1.083 -23.3868 -0.657775 0.0462048 0.000533403 0.662642 1.11567 6.66156 8.47619 -4.26258 13.6007 26.9665 -9.54724 8.58699 12.4627 -7.95139e-016 0 6.36111e-015 -47.3564 -61.2363 16.3725 -30.2956 59.8916 -98.2219 25.4646 11.4835 -33.6624 19.1274 4.04618 18.53 101.62 -11.3064 104.311 18.5036 17.9248 13.7252 71.235 61.8025 -73.7045 18.1727 -45.7872 -4.81639 20.3372 66.0514 -43.1238 -18.9973 -9.032 0.375486 -1.31371e-009 1.56035e-007 -4.8354e-009 
35.1661 84.5198 129.082 1.46445 11.6398 179.994 -2.82399 -12.066 0.506778 60.8256 81.8188 -58.4868 2.33415 -21.6233 -0.495325 0.0462048 0.000533403 0.662642 0.763972 6.74355 8.42188 -4.3532 13.6549 26.3394 -9.75306 8.18113 12.4697 1.59028e-015 2.38542e-015 -6.36111e-015 -48.4751 -61.0748 14.8972 -29.3639 59.6399 -99.8592 25.5679 11.4981 -33.451 18.8008 4.00664 18.5012 101.511 -13.0121 101.248 20.8025 21.3092 16.8065 65.784 60.3623 -70.132 17.9677 -45.6983 -3.30142 18.7834 66.5152 -41.2657 -19.0428 -8.99178 0.507847 -1.31371e-009 1.56035e-007 -4.8354e-009 
35.234 86.0737 129.095 1.32063 10.9757 -179.835 -2.98066 -12.7372 0.474885 50.2744 81.0593 -46.9736 3.98778 -19.525 -0.340888 0.0462048 0.000533403 0.662642 0.379599 6.85072 8.33093 -4.38632 13.7605 25.6053 -9.74785 7.59918 12.4093 0 0 -0 -50.3454 -60.8786 12.4711 -28.5664 59.3629 -101.108 25.7708 11.4524 -33.3442 18.5611 4.00259 18.5662 101.219 -15.0011 98.127 22.9558 24.994 20.1721 60.4207 58.7427 -66.7126 17.2223 -45.5566 -1.68407 19.4855 66.9258 -42.3372 -19.3793 -9.01927 0.567223 -1.31371e-009 1.56035e-007 -4.8354e-009 
35.2877 87.5789 129.091 1.26492 10.2947 -179.565 -3.19789 -13.4655 0.384959 42.0593 79.9586 -37.7707 5.72689 -16.9727 -0.259932 0.0462048 0.000533403 0.662642 -0.0617849 6.97891 8.19462 -4.37861 13.9082 24.7424 -9.56065 6.87633 12.3879 -0 -1.59028e-015 -0 -52.6655 -60.9035 9.37448 -28.1831 59.2499 -101.672 25.8948 11.4078 -33.3476 18.473 4.05905 18.7924 100.708 -17.2842 94.9987 24.9162 28.9608 23.7554 55.1252 57.0317 -63.5047 16.1415 -45.3676 -0.201359 21.5735 67.405 -45.1954 -20.1068 -9.22516 0.539821 -1.31371e-009 1.56035e-007 -4.83539e-009 
35.3477 88.9977 129.078 1.31312 9.59944 -179.219 -3.47515 -14.2147 0.188129 36.1809 78.5887 -30.9085 7.34856 -14.0322 -0.289447 0.0462048 0.000533403 0.662642 -0.529346 7.11796 8.01271 -4.32835 14.0855 23.7574 -9.2717 6.04351 12.4534 0 0 -6.36111e-015 -55.4344 -61.2125 5.5946 -28.2131 59.4222 -101.591 26.0499 11.3764 -33.2529 18.4856 4.16535 19.168 100.027 -19.7715 91.8902 26.6656 33.1511 27.4733 49.7394 55.3695 -60.5105 15.0053 -45.0982 0.942746 23.8736 68.0389 -48.3038 -21.1903 -9.74806 0.407411 -1.31371e-009 1.56035e-007 -4.8354e-009 
